<svg width="1437" height="364" viewBox="0 0 1437 364" fill="none" xmlns="http://www.w3.org/2000/svg">
<mask id="path-1-inside-1_59_36" fill="white">
<path d="M19.7483 9.09756H71.3975C80.0057 9.09756 85.0694 13.6463 86.5885 22.7439C87.0949 24.7656 87.6012 28.809 88.1076 34.874C88.614 40.939 89.2469 46.625 90.0065 51.9319C91.0192 57.2388 92.2851 59.8923 93.8042 59.8923C95.0701 59.8923 96.2094 59.3869 97.2222 58.376C98.2349 57.1125 98.9944 56.1016 99.5008 55.3435C116.211 35.3794 135.326 21.2276 156.847 12.8882C178.62 4.29607 202.293 0 227.864 0C248.625 0 268.753 3.79065 288.249 11.372C307.997 18.9533 322.555 32.8523 331.923 53.0691C332.429 53.8273 332.935 54.8381 333.442 56.1016C333.948 57.3652 334.834 57.997 336.1 57.997C337.113 57.997 337.999 57.6179 338.758 56.8598C339.518 55.8489 340.151 55.0908 340.657 54.5854C356.355 37.4011 374.584 24.1338 395.345 14.7835C416.106 5.18056 438.133 0.379065 461.426 0.379065C492.314 0.379065 518.898 8.97121 541.178 26.1555C563.711 43.0871 574.978 68.1054 574.978 101.21C574.978 127.745 575.231 154.406 575.738 181.193C576.244 207.728 576.75 234.262 577.257 260.797C577.763 273.432 578.269 286.194 578.776 299.082C579.535 311.718 579.915 324.353 579.915 336.989C579.915 347.603 574.725 352.91 564.344 352.91H505.1C499.53 352.91 495.605 351.646 493.327 349.119C491.301 346.592 490.035 342.801 489.529 337.747C488.516 327.133 488.136 316.393 488.389 305.527C488.643 294.407 488.516 283.541 488.01 272.927C487.757 250.183 487.377 227.439 486.87 204.695C486.617 181.951 486.491 159.207 486.491 136.463C486.491 118.774 482.187 105.001 473.578 95.1453C465.223 85.0369 451.931 79.9827 433.702 79.9827C412.688 79.9827 394.838 86.4268 380.154 99.3151C365.469 112.203 354.203 128.25 346.354 147.456C338.758 166.41 334.961 185.11 334.961 203.558C334.961 225.796 335.087 248.035 335.341 270.273C335.594 292.512 335.72 314.877 335.72 337.368C335.72 347.729 330.53 352.91 320.15 352.91H260.145C249.765 352.91 244.575 347.729 244.575 337.368C244.575 303.758 244.828 270.273 245.334 236.916C245.84 203.558 245.84 170.074 245.334 136.463C245.081 119.532 240.777 105.886 232.422 95.5244C224.32 85.1633 211.281 79.9827 193.305 79.9827C171.784 79.9827 153.682 86.4268 138.997 99.3151C124.313 111.951 113.173 127.871 105.577 147.077C97.9817 166.283 93.9308 185.363 93.4244 204.316C93.1712 219.731 92.9181 235.147 92.6649 250.562C92.4117 265.977 92.0319 281.519 91.5256 297.187C91.5256 303.758 91.5256 310.581 91.5256 317.657C91.7787 324.48 91.5256 331.177 90.766 337.747C90.2596 342.801 88.8671 346.592 86.5885 349.119C84.563 351.646 80.7653 352.91 75.1953 352.91H15.5707C5.19025 352.91 0 347.476 0 336.61C0 323.469 0.253183 310.454 0.759548 297.566C1.5191 284.425 2.02546 271.284 2.27864 258.143C3.79774 202.8 4.55729 147.583 4.55729 92.4919C4.55729 82.1308 4.30411 70.7588 3.79774 58.376C3.29138 45.9932 3.41797 34.7476 4.17751 24.6392C4.93706 14.2781 10.1273 9.09756 19.7483 9.09756Z"/>
<path d="M738.878 358.054C715.368 358.054 695.656 352.458 679.741 341.267C663.827 330.075 651.801 315.274 643.663 296.862C635.706 278.27 631.727 258.143 631.727 236.483V232.15C632.089 209.406 636.791 188.016 645.833 167.98C655.056 147.944 668.348 131.788 685.709 119.514C703.07 107.059 724.048 100.831 748.643 100.831C763.834 100.831 777.94 103.719 790.961 109.496C804.163 115.091 816.46 122.763 827.853 132.51C829.119 133.774 830.204 134.406 831.108 134.406C833.279 134.406 834.273 132.149 834.092 127.637C834.092 123.124 834.725 118.611 835.991 114.099C837.438 109.586 841.055 107.33 846.842 107.33H885.091C892.505 107.33 896.213 111.03 896.213 118.431C896.213 126.193 896.122 133.954 895.941 141.716C895.941 149.478 895.941 157.24 895.941 165.002C895.941 184.857 896.032 204.803 896.213 224.84C896.574 244.876 896.846 264.822 897.026 284.678C897.207 294.064 897.388 303.541 897.569 313.108C897.931 322.494 898.111 331.971 898.111 341.538C898.111 349.119 894.404 352.91 886.99 352.91H844.401C839.518 352.91 836.353 351.375 834.906 348.307C833.459 345.058 832.827 341.267 833.007 336.935C833.188 332.603 833.188 328.722 833.007 325.292C833.007 324.751 832.917 323.848 832.736 322.584C832.555 321.321 832.013 320.689 831.108 320.689C830.385 320.689 829.662 320.96 828.938 321.501C828.396 322.043 827.853 322.494 827.311 322.855C814.652 333.505 800.998 342.079 786.349 348.577C771.701 354.895 755.877 358.054 738.878 358.054ZM766.547 300.382C779.387 300.382 791.232 297.765 802.083 292.53C813.114 287.115 821.705 278.631 827.853 267.078C828.215 266.356 829.029 264.551 830.295 261.663C831.741 258.595 832.465 256.699 832.465 255.977C832.465 249.66 832.374 243.342 832.194 237.024C832.194 230.706 832.194 224.479 832.194 218.342C832.194 215.453 832.284 212.295 832.465 208.865C832.646 205.255 832.555 202.096 832.194 199.388C832.013 198.125 831.289 196.229 830.023 193.702C828.938 191.175 828.125 189.37 827.582 188.287C821.252 176.915 812.301 168.431 800.727 162.836C789.152 157.24 777.036 154.442 764.377 154.442C750.994 154.442 739.239 157.781 729.112 164.46C718.985 171.139 711.028 179.984 705.241 190.995C699.634 201.825 696.831 213.739 696.831 226.735C696.831 239.732 699.815 251.826 705.783 263.017C711.751 274.208 719.979 283.234 730.468 290.093C741.138 296.952 753.164 300.382 766.547 300.382Z"/>
<path d="M998.209 107.33C1005.08 107.33 1008.79 110.669 1009.33 117.348L1012.04 148.214C1012.04 148.395 1012.22 149.749 1012.59 152.276C1012.95 154.622 1013.58 155.796 1014.49 155.796C1015.39 155.796 1016.29 154.803 1017.2 152.817C1018.28 150.832 1018.92 149.659 1019.1 149.298C1026.51 135.398 1035.55 124.478 1046.22 116.535C1056.89 108.593 1070.37 104.622 1086.64 104.622C1090.44 104.622 1095.23 104.983 1101.02 105.705C1106.99 106.247 1109.97 109.225 1109.97 114.64C1109.97 117.348 1109.43 121.59 1108.34 127.366C1107.26 133.142 1105.99 139.009 1104.55 144.965C1103.28 150.742 1102.29 155.164 1101.56 158.233C1100.84 161.301 1099.66 163.738 1098.04 165.543C1096.59 167.168 1094.06 167.98 1090.44 167.98C1088.63 167.98 1086.82 167.89 1085.01 167.709C1083.39 167.348 1081.58 167.168 1079.59 167.168C1065.3 167.168 1053.28 171.68 1043.51 180.706C1033.75 189.551 1026.42 200.471 1021.54 213.468C1016.66 226.464 1014.21 239.28 1014.21 251.916V341.808C1014.21 349.209 1010.51 352.91 1003.09 352.91H961.045C953.631 352.91 949.924 349.119 949.924 341.538C949.924 313.559 950.014 285.671 950.195 257.873C950.557 229.894 950.737 202.006 950.737 174.208V118.431C950.737 111.03 954.445 107.33 961.859 107.33H998.209Z"/>
<path d="M1295.52 290.635C1298.05 290.635 1299.95 291.447 1301.21 293.072C1302.66 294.696 1303.84 296.501 1304.74 298.487C1305.46 299.931 1306.91 303.451 1309.08 309.046C1311.25 314.642 1313.24 320.148 1315.05 325.563C1317.04 330.978 1318.03 334.227 1318.03 335.31C1318.03 339.281 1314.87 342.711 1308.54 345.599C1302.39 348.487 1294.98 350.834 1286.29 352.639C1277.61 354.444 1269.39 355.707 1261.61 356.43C1253.83 357.332 1248.32 357.783 1245.06 357.783C1206.9 357.783 1177.15 346.502 1155.82 323.938C1134.48 301.375 1123.81 271.32 1123.81 233.775C1123.81 208.684 1128.69 186.121 1138.45 166.085C1148.4 146.048 1162.69 130.164 1181.31 118.431C1199.94 106.698 1222.28 100.831 1248.32 100.831C1258.44 100.831 1269.39 102.005 1281.14 104.351C1292.9 106.517 1303.2 110.037 1312.07 114.911C1313.87 115.813 1315.32 116.896 1316.41 118.16C1317.67 119.243 1318.3 120.868 1318.3 123.034C1318.3 124.839 1317.85 126.644 1316.95 128.449L1304.47 159.857C1302.48 164.911 1299.32 167.438 1294.98 167.438C1293.17 167.438 1291.18 166.987 1289.01 166.085C1283.04 164.099 1277.07 162.475 1271.1 161.211C1265.14 159.767 1258.99 159.045 1252.66 159.045C1230.78 159.045 1214.5 165.904 1203.83 179.623C1193.34 193.341 1188.1 210.399 1188.1 230.797C1188.1 250.472 1193.07 267.078 1203.02 280.616C1213.14 293.974 1228.79 300.653 1249.94 300.653C1256.82 300.653 1263.42 299.841 1269.75 298.216C1276.08 296.591 1282.41 294.606 1288.74 292.259C1289.82 291.898 1290.91 291.537 1291.99 291.176C1293.08 290.815 1294.25 290.635 1295.52 290.635Z"/>
<path d="M1359.22 325.184C1359.22 303.746 1376.63 286.367 1398.11 286.367C1419.59 286.367 1437 303.746 1437 325.184C1437 346.621 1419.59 364 1398.11 364C1376.63 364 1359.22 346.621 1359.22 325.184Z"/>
</mask>
<path d="M19.7483 9.09756H71.3975C80.0057 9.09756 85.0694 13.6463 86.5885 22.7439C87.0949 24.7656 87.6012 28.809 88.1076 34.874C88.614 40.939 89.2469 46.625 90.0065 51.9319C91.0192 57.2388 92.2851 59.8923 93.8042 59.8923C95.0701 59.8923 96.2094 59.3869 97.2222 58.376C98.2349 57.1125 98.9944 56.1016 99.5008 55.3435C116.211 35.3794 135.326 21.2276 156.847 12.8882C178.62 4.29607 202.293 0 227.864 0C248.625 0 268.753 3.79065 288.249 11.372C307.997 18.9533 322.555 32.8523 331.923 53.0691C332.429 53.8273 332.935 54.8381 333.442 56.1016C333.948 57.3652 334.834 57.997 336.1 57.997C337.113 57.997 337.999 57.6179 338.758 56.8598C339.518 55.8489 340.151 55.0908 340.657 54.5854C356.355 37.4011 374.584 24.1338 395.345 14.7835C416.106 5.18056 438.133 0.379065 461.426 0.379065C492.314 0.379065 518.898 8.97121 541.178 26.1555C563.711 43.0871 574.978 68.1054 574.978 101.21C574.978 127.745 575.231 154.406 575.738 181.193C576.244 207.728 576.75 234.262 577.257 260.797C577.763 273.432 578.269 286.194 578.776 299.082C579.535 311.718 579.915 324.353 579.915 336.989C579.915 347.603 574.725 352.91 564.344 352.91H505.1C499.53 352.91 495.605 351.646 493.327 349.119C491.301 346.592 490.035 342.801 489.529 337.747C488.516 327.133 488.136 316.393 488.389 305.527C488.643 294.407 488.516 283.541 488.01 272.927C487.757 250.183 487.377 227.439 486.87 204.695C486.617 181.951 486.491 159.207 486.491 136.463C486.491 118.774 482.187 105.001 473.578 95.1453C465.223 85.0369 451.931 79.9827 433.702 79.9827C412.688 79.9827 394.838 86.4268 380.154 99.3151C365.469 112.203 354.203 128.25 346.354 147.456C338.758 166.41 334.961 185.11 334.961 203.558C334.961 225.796 335.087 248.035 335.341 270.273C335.594 292.512 335.72 314.877 335.72 337.368C335.72 347.729 330.53 352.91 320.15 352.91H260.145C249.765 352.91 244.575 347.729 244.575 337.368C244.575 303.758 244.828 270.273 245.334 236.916C245.84 203.558 245.84 170.074 245.334 136.463C245.081 119.532 240.777 105.886 232.422 95.5244C224.32 85.1633 211.281 79.9827 193.305 79.9827C171.784 79.9827 153.682 86.4268 138.997 99.3151C124.313 111.951 113.173 127.871 105.577 147.077C97.9817 166.283 93.9308 185.363 93.4244 204.316C93.1712 219.731 92.9181 235.147 92.6649 250.562C92.4117 265.977 92.0319 281.519 91.5256 297.187C91.5256 303.758 91.5256 310.581 91.5256 317.657C91.7787 324.48 91.5256 331.177 90.766 337.747C90.2596 342.801 88.8671 346.592 86.5885 349.119C84.563 351.646 80.7653 352.91 75.1953 352.91H15.5707C5.19025 352.91 0 347.476 0 336.61C0 323.469 0.253183 310.454 0.759548 297.566C1.5191 284.425 2.02546 271.284 2.27864 258.143C3.79774 202.8 4.55729 147.583 4.55729 92.4919C4.55729 82.1308 4.30411 70.7588 3.79774 58.376C3.29138 45.9932 3.41797 34.7476 4.17751 24.6392C4.93706 14.2781 10.1273 9.09756 19.7483 9.09756Z" stroke="#FF5858" stroke-width="6" mask="url(#path-1-inside-1_59_36)"/>
<path d="M738.878 358.054C715.368 358.054 695.656 352.458 679.741 341.267C663.827 330.075 651.801 315.274 643.663 296.862C635.706 278.27 631.727 258.143 631.727 236.483V232.15C632.089 209.406 636.791 188.016 645.833 167.98C655.056 147.944 668.348 131.788 685.709 119.514C703.07 107.059 724.048 100.831 748.643 100.831C763.834 100.831 777.94 103.719 790.961 109.496C804.163 115.091 816.46 122.763 827.853 132.51C829.119 133.774 830.204 134.406 831.108 134.406C833.279 134.406 834.273 132.149 834.092 127.637C834.092 123.124 834.725 118.611 835.991 114.099C837.438 109.586 841.055 107.33 846.842 107.33H885.091C892.505 107.33 896.213 111.03 896.213 118.431C896.213 126.193 896.122 133.954 895.941 141.716C895.941 149.478 895.941 157.24 895.941 165.002C895.941 184.857 896.032 204.803 896.213 224.84C896.574 244.876 896.846 264.822 897.026 284.678C897.207 294.064 897.388 303.541 897.569 313.108C897.931 322.494 898.111 331.971 898.111 341.538C898.111 349.119 894.404 352.91 886.99 352.91H844.401C839.518 352.91 836.353 351.375 834.906 348.307C833.459 345.058 832.827 341.267 833.007 336.935C833.188 332.603 833.188 328.722 833.007 325.292C833.007 324.751 832.917 323.848 832.736 322.584C832.555 321.321 832.013 320.689 831.108 320.689C830.385 320.689 829.662 320.96 828.938 321.501C828.396 322.043 827.853 322.494 827.311 322.855C814.652 333.505 800.998 342.079 786.349 348.577C771.701 354.895 755.877 358.054 738.878 358.054ZM766.547 300.382C779.387 300.382 791.232 297.765 802.083 292.53C813.114 287.115 821.705 278.631 827.853 267.078C828.215 266.356 829.029 264.551 830.295 261.663C831.741 258.595 832.465 256.699 832.465 255.977C832.465 249.66 832.374 243.342 832.194 237.024C832.194 230.706 832.194 224.479 832.194 218.342C832.194 215.453 832.284 212.295 832.465 208.865C832.646 205.255 832.555 202.096 832.194 199.388C832.013 198.125 831.289 196.229 830.023 193.702C828.938 191.175 828.125 189.37 827.582 188.287C821.252 176.915 812.301 168.431 800.727 162.836C789.152 157.24 777.036 154.442 764.377 154.442C750.994 154.442 739.239 157.781 729.112 164.46C718.985 171.139 711.028 179.984 705.241 190.995C699.634 201.825 696.831 213.739 696.831 226.735C696.831 239.732 699.815 251.826 705.783 263.017C711.751 274.208 719.979 283.234 730.468 290.093C741.138 296.952 753.164 300.382 766.547 300.382Z" stroke="#FF5858" stroke-width="6" mask="url(#path-1-inside-1_59_36)"/>
<path d="M998.209 107.33C1005.08 107.33 1008.79 110.669 1009.33 117.348L1012.04 148.214C1012.04 148.395 1012.22 149.749 1012.59 152.276C1012.95 154.622 1013.58 155.796 1014.49 155.796C1015.39 155.796 1016.29 154.803 1017.2 152.817C1018.28 150.832 1018.92 149.659 1019.1 149.298C1026.51 135.398 1035.55 124.478 1046.22 116.535C1056.89 108.593 1070.37 104.622 1086.64 104.622C1090.44 104.622 1095.23 104.983 1101.02 105.705C1106.99 106.247 1109.97 109.225 1109.97 114.64C1109.97 117.348 1109.43 121.59 1108.34 127.366C1107.26 133.142 1105.99 139.009 1104.55 144.965C1103.28 150.742 1102.29 155.164 1101.56 158.233C1100.84 161.301 1099.66 163.738 1098.04 165.543C1096.59 167.168 1094.06 167.98 1090.44 167.98C1088.63 167.98 1086.82 167.89 1085.01 167.709C1083.39 167.348 1081.58 167.168 1079.59 167.168C1065.3 167.168 1053.28 171.68 1043.51 180.706C1033.75 189.551 1026.42 200.471 1021.54 213.468C1016.66 226.464 1014.21 239.28 1014.21 251.916V341.808C1014.21 349.209 1010.51 352.91 1003.09 352.91H961.045C953.631 352.91 949.924 349.119 949.924 341.538C949.924 313.559 950.014 285.671 950.195 257.873C950.557 229.894 950.737 202.006 950.737 174.208V118.431C950.737 111.03 954.445 107.33 961.859 107.33H998.209Z" stroke="#FF5858" stroke-width="6" mask="url(#path-1-inside-1_59_36)"/>
<path d="M1295.52 290.635C1298.05 290.635 1299.95 291.447 1301.21 293.072C1302.66 294.696 1303.84 296.501 1304.74 298.487C1305.46 299.931 1306.91 303.451 1309.08 309.046C1311.25 314.642 1313.24 320.148 1315.05 325.563C1317.04 330.978 1318.03 334.227 1318.03 335.31C1318.03 339.281 1314.87 342.711 1308.54 345.599C1302.39 348.487 1294.98 350.834 1286.29 352.639C1277.61 354.444 1269.39 355.707 1261.61 356.43C1253.83 357.332 1248.32 357.783 1245.06 357.783C1206.9 357.783 1177.15 346.502 1155.82 323.938C1134.48 301.375 1123.81 271.32 1123.81 233.775C1123.81 208.684 1128.69 186.121 1138.45 166.085C1148.4 146.048 1162.69 130.164 1181.31 118.431C1199.94 106.698 1222.28 100.831 1248.32 100.831C1258.44 100.831 1269.39 102.005 1281.14 104.351C1292.9 106.517 1303.2 110.037 1312.07 114.911C1313.87 115.813 1315.32 116.896 1316.41 118.16C1317.67 119.243 1318.3 120.868 1318.3 123.034C1318.3 124.839 1317.85 126.644 1316.95 128.449L1304.47 159.857C1302.48 164.911 1299.32 167.438 1294.98 167.438C1293.17 167.438 1291.18 166.987 1289.01 166.085C1283.04 164.099 1277.07 162.475 1271.1 161.211C1265.14 159.767 1258.99 159.045 1252.66 159.045C1230.78 159.045 1214.5 165.904 1203.83 179.623C1193.34 193.341 1188.1 210.399 1188.1 230.797C1188.1 250.472 1193.07 267.078 1203.02 280.616C1213.14 293.974 1228.79 300.653 1249.94 300.653C1256.82 300.653 1263.42 299.841 1269.75 298.216C1276.08 296.591 1282.41 294.606 1288.74 292.259C1289.82 291.898 1290.91 291.537 1291.99 291.176C1293.08 290.815 1294.25 290.635 1295.52 290.635Z" stroke="#FF5858" stroke-width="6" mask="url(#path-1-inside-1_59_36)"/>
<path d="M1359.22 325.184C1359.22 303.746 1376.63 286.367 1398.11 286.367C1419.59 286.367 1437 303.746 1437 325.184C1437 346.621 1419.59 364 1398.11 364C1376.63 364 1359.22 346.621 1359.22 325.184Z" stroke="#FF5858" stroke-width="6" mask="url(#path-1-inside-1_59_36)"/>
</svg>
