<svg width="133" height="67" viewBox="0 0 133 67" fill="none" xmlns="http://www.w3.org/2000/svg">
<path d="M3.71799 1.72717H13.442C15.0626 1.72717 16.016 2.59076 16.302 4.31794C16.3973 4.70175 16.4926 5.46939 16.588 6.62084C16.6833 7.77229 16.8025 8.85177 16.9455 9.85929C17.1361 10.8668 17.3745 11.3706 17.6605 11.3706C17.8988 11.3706 18.1133 11.2746 18.304 11.0827C18.4946 10.8428 18.6376 10.6509 18.733 10.507C21.879 6.71679 25.4778 4.03008 29.5295 2.44683C33.6288 0.81561 38.0856 0 42.8999 0C46.8086 0 50.5981 0.719656 54.2684 2.15897C57.9864 3.59828 60.7272 6.23702 62.4909 10.0752C62.5862 10.2191 62.6816 10.411 62.7769 10.6509C62.8722 10.8908 63.0391 11.0107 63.2774 11.0107C63.4681 11.0107 63.6349 10.9388 63.7779 10.7948C63.9209 10.6029 64.0401 10.459 64.1354 10.363C67.0907 7.10061 70.5227 4.58181 74.4314 2.80666C78.34 0.98353 82.487 0.0719656 86.8724 0.0719656C92.6877 0.0719656 97.6927 1.70319 101.887 4.96563C106.13 8.18009 108.251 12.9298 108.251 19.2148C108.251 24.2524 108.298 29.314 108.394 34.3996C108.489 39.4372 108.584 44.4748 108.68 49.5123C108.775 51.9112 108.87 54.334 108.966 56.7809C109.109 59.1797 109.18 61.5786 109.18 63.9774C109.18 65.9925 108.203 67 106.249 67H95.0948C94.0462 67 93.3073 66.7601 92.8783 66.2803C92.497 65.8006 92.2587 65.0809 92.1633 64.1214C91.9727 62.1063 91.9012 60.0673 91.9488 58.0043C91.9965 55.8933 91.9727 53.8303 91.8773 51.8153C91.8297 47.4973 91.7582 43.1794 91.6628 38.8614C91.6152 34.5435 91.5913 30.2256 91.5913 25.9076C91.5913 22.5492 90.781 19.9345 89.1604 18.0634C87.5874 16.1443 85.0849 15.1847 81.6529 15.1847C77.6965 15.1847 74.336 16.4082 71.5714 18.855C68.8067 21.3018 66.6856 24.3484 65.2079 27.9946C63.7779 31.5929 63.0629 35.1432 63.0629 38.6455C63.0629 42.8675 63.0867 47.0895 63.1344 51.3115C63.1821 55.5335 63.2059 59.7794 63.2059 64.0494C63.2059 66.0165 62.2287 67 60.2744 67H48.9774C47.0231 67 46.0459 66.0165 46.0459 64.0494C46.0459 57.6685 46.0936 51.3115 46.1889 44.9785C46.2843 38.6455 46.2843 32.2886 46.1889 25.9076C46.1413 22.6932 45.3309 20.1024 43.7579 18.1353C42.2326 16.1683 39.7778 15.1847 36.3934 15.1847C32.3418 15.1847 28.9336 16.4082 26.169 18.855C23.4043 21.2538 21.307 24.2764 19.877 27.9227C18.447 31.5689 17.6843 35.1912 17.589 38.7895C17.5413 41.7161 17.4936 44.6427 17.446 47.5693C17.3983 50.4959 17.3268 53.4465 17.2315 56.4211C17.2315 57.6685 17.2315 58.9638 17.2315 60.3072C17.2791 61.6026 17.2315 62.874 17.0885 64.1214C16.9931 65.0809 16.731 65.8006 16.302 66.2803C15.9206 66.7601 15.2056 67 14.157 67H2.9315C0.977165 67 0 65.9685 0 63.9055C0 61.4107 0.0476666 58.9398 0.143 56.493C0.286 53.9982 0.381333 51.5034 0.428999 49.0086C0.714999 38.5016 0.857999 28.0186 0.857999 17.5596C0.857999 15.5926 0.810332 13.4336 0.714999 11.0827C0.619666 8.73183 0.643499 6.59685 0.786499 4.67777C0.929498 2.71071 1.90666 1.72717 3.71799 1.72717Z" fill="#FF5858"/>
<path d="M116.265 58.578C116.265 53.9266 120.011 50.1559 124.632 50.1559C129.254 50.1559 133 53.9266 133 58.578C133 63.2293 129.254 67 124.632 67C120.011 67 116.265 63.2293 116.265 58.578Z" fill="#FF5858"/>
</svg>
