<svg width="221" height="56" viewBox="0 0 221 56" fill="none" xmlns="http://www.w3.org/2000/svg">
<path d="M3.03714 1.39963H10.9804C12.3043 1.39963 13.083 2.09944 13.3167 3.49906C13.3945 3.81009 13.4724 4.43215 13.5503 5.36523C13.6282 6.29831 13.7255 7.17308 13.8423 7.98953C13.9981 8.80597 14.1928 9.2142 14.4264 9.2142C14.6211 9.2142 14.7963 9.13644 14.9521 8.98093C15.1078 8.78654 15.2246 8.63102 15.3025 8.51439C17.8724 5.44299 20.8122 3.26579 24.1219 1.9828C27.4705 0.660934 31.1112 0 35.0439 0C38.2368 0 41.3323 0.583177 44.3305 1.74953C47.3676 2.91589 49.6065 5.0542 51.0472 8.16448C51.1251 8.28112 51.203 8.43663 51.2809 8.63102C51.3587 8.82541 51.495 8.92261 51.6897 8.92261C51.8455 8.92261 51.9817 8.86429 52.0986 8.74766C52.2154 8.59214 52.3127 8.47551 52.3906 8.39775C54.8047 5.75401 57.6082 3.71289 60.8011 2.27439C63.994 0.797009 67.3816 0.0583177 70.9638 0.0583177C75.7142 0.0583177 79.8027 1.38019 83.2292 4.02392C86.6946 6.62878 88.4274 10.4777 88.4274 15.5708C88.4274 19.6531 88.4663 23.7547 88.5442 27.8759C88.6221 31.9581 88.6999 36.0403 88.7778 40.1226C88.8557 42.0665 88.9336 44.0299 89.0114 46.0127C89.1282 47.9566 89.1867 49.9005 89.1867 51.8444C89.1867 53.4773 88.3884 54.2938 86.792 54.2938H77.6806C76.824 54.2938 76.2204 54.0994 75.87 53.7106C75.5585 53.3218 75.3638 52.7387 75.2859 51.9611C75.1302 50.3282 75.0718 48.6759 75.1107 47.0041C75.1496 45.2934 75.1302 43.6217 75.0523 41.9888C75.0134 38.4897 74.955 34.9906 74.8771 31.4916C74.8381 27.9925 74.8187 24.4934 74.8187 20.9944C74.8187 18.2729 74.1567 16.154 72.8328 14.6377C71.5479 13.0826 69.5037 12.305 66.7002 12.305C63.4683 12.305 60.7232 13.2964 58.4649 15.2792C56.2065 17.262 54.4738 19.7308 53.2667 22.6856C52.0986 25.6015 51.5145 28.4785 51.5145 31.3166C51.5145 34.7379 51.534 38.1592 51.5729 41.5805C51.6118 45.0018 51.6313 48.4426 51.6313 51.9028C51.6313 53.4968 50.8331 54.2938 49.2366 54.2938H40.0084C38.412 54.2938 37.6138 53.4968 37.6138 51.9028C37.6138 46.7319 37.6527 41.5805 37.7306 36.4486C37.8084 31.3166 37.8084 26.1652 37.7306 20.9944C37.6916 18.3895 37.0297 16.2901 35.7447 14.6961C34.4987 13.102 32.4935 12.305 29.7289 12.305C26.4192 12.305 23.6351 13.2964 21.3768 15.2792C19.1184 17.2232 17.4051 19.6725 16.237 22.6273C15.0689 25.582 14.4459 28.5174 14.368 31.4332C14.329 33.8048 14.2901 36.1764 14.2512 38.548C14.2122 40.9196 14.1538 43.3106 14.076 45.7211C14.076 46.7319 14.076 47.7816 14.076 48.8702C14.1149 49.92 14.076 50.9502 13.9591 51.9611C13.8813 52.7387 13.6671 53.3218 13.3167 53.7106C13.0052 54.0994 12.4211 54.2938 11.5645 54.2938H2.39466C0.798221 54.2938 0 53.4579 0 51.7861C0 49.7644 0.0389376 47.7622 0.116813 45.7794C0.233626 43.7577 0.311501 41.736 0.350439 39.7144C0.584065 31.2 0.700877 22.705 0.700877 14.2295C0.700877 12.6355 0.66194 10.886 0.584065 8.98093C0.506189 7.07588 0.525658 5.34579 0.642471 3.79065C0.759284 2.19663 1.55751 1.39963 3.03714 1.39963Z" fill="#FF5858"/>
<path d="M113.634 55.0852C110.018 55.0852 106.987 54.2244 104.539 52.5026C102.092 50.7808 100.242 48.5037 98.9906 45.6711C97.7668 42.8108 97.155 39.7144 97.155 36.3819V35.7154C97.2106 32.2164 97.9337 28.9256 99.3243 25.8431C100.743 22.7606 102.787 20.2751 105.457 18.3867C108.127 16.4706 111.353 15.5125 115.136 15.5125C117.472 15.5125 119.641 15.9568 121.644 16.8455C123.674 17.7064 125.566 18.8866 127.318 20.3862C127.512 20.5806 127.679 20.6778 127.818 20.6778C128.152 20.6778 128.305 20.3307 128.277 19.6364C128.277 18.9421 128.375 18.2479 128.569 17.5536C128.792 16.8594 129.348 16.5122 130.238 16.5122H136.12C137.261 16.5122 137.831 17.0815 137.831 18.2201C137.831 19.4142 137.817 20.6084 137.789 21.8025C137.789 22.9966 137.789 24.1907 137.789 25.3849C137.789 28.4396 137.803 31.5082 137.831 34.5907C137.887 37.6732 137.928 40.7419 137.956 43.7966C137.984 45.2407 138.012 46.6986 138.039 48.1704C138.095 49.6145 138.123 51.0724 138.123 52.5443C138.123 53.7106 137.553 54.2938 136.412 54.2938H129.863C129.112 54.2938 128.625 54.0577 128.402 53.5856C128.18 53.0858 128.083 52.5026 128.11 51.8361C128.138 51.1696 128.138 50.5726 128.11 50.0449C128.11 49.9616 128.096 49.8228 128.069 49.6284C128.041 49.434 127.957 49.3368 127.818 49.3368C127.707 49.3368 127.596 49.3784 127.485 49.4618C127.401 49.5451 127.318 49.6145 127.234 49.67C125.287 51.3085 123.188 52.6276 120.935 53.6273C118.682 54.5993 116.248 55.0852 113.634 55.0852ZM117.889 46.2126C119.864 46.2126 121.686 45.81 123.354 45.0046C125.051 44.1715 126.372 42.8663 127.318 41.089C127.373 40.9779 127.499 40.7002 127.693 40.2559C127.916 39.7838 128.027 39.4922 128.027 39.3811C128.027 38.4092 128.013 37.4372 127.985 36.4652C127.985 35.4933 127.985 34.5352 127.985 33.591C127.985 33.1467 127.999 32.6607 128.027 32.1331C128.055 31.5777 128.041 31.0917 127.985 30.6751C127.957 30.4807 127.846 30.1891 127.651 29.8004C127.485 29.4116 127.359 29.1339 127.276 28.9672C126.303 27.2177 124.926 25.9125 123.146 25.0516C121.366 24.1907 119.502 23.7603 117.556 23.7603C115.497 23.7603 113.69 24.2741 112.132 25.3016C110.575 26.3291 109.351 27.6898 108.461 29.3838C107.599 31.05 107.167 32.8829 107.167 34.8823C107.167 36.8818 107.626 38.7424 108.544 40.4642C109.462 42.1859 110.728 43.5744 112.341 44.6297C113.982 45.685 115.831 46.2126 117.889 46.2126Z" fill="#FF5858"/>
<path d="M153.517 16.5122C154.574 16.5122 155.144 17.026 155.228 18.0535L155.645 22.8022C155.645 22.83 155.673 23.0383 155.728 23.4271C155.784 23.7881 155.881 23.9686 156.02 23.9686C156.159 23.9686 156.298 23.8158 156.438 23.5104C156.604 23.2049 156.702 23.0244 156.73 22.9688C157.87 20.8305 159.26 19.1504 160.901 17.9285C162.542 16.7066 164.614 16.0957 167.118 16.0957C167.702 16.0957 168.439 16.1512 169.329 16.2623C170.246 16.3456 170.705 16.8038 170.705 17.6369C170.705 18.0535 170.622 18.7061 170.455 19.5948C170.288 20.4834 170.094 21.3859 169.871 22.3024C169.676 23.191 169.523 23.8714 169.412 24.3435C169.301 24.8156 169.12 25.1905 168.87 25.4682C168.647 25.7181 168.258 25.8431 167.702 25.8431C167.423 25.8431 167.145 25.8292 166.867 25.8014C166.617 25.7459 166.339 25.7181 166.033 25.7181C163.836 25.7181 161.986 26.4124 160.484 27.8009C158.982 29.1616 157.856 30.8417 157.105 32.8412C156.354 34.8407 155.979 36.8124 155.979 38.7563V52.5859C155.979 53.7245 155.408 54.2938 154.268 54.2938H147.802C146.661 54.2938 146.091 53.7106 146.091 52.5443C146.091 48.2399 146.105 43.9493 146.133 39.6727C146.189 35.3683 146.216 31.0778 146.216 26.8012V18.2201C146.216 17.0815 146.787 16.5122 147.927 16.5122H153.517Z" fill="#FF5858"/>
<path d="M199.241 44.713C199.63 44.713 199.922 44.838 200.117 45.0879C200.34 45.3379 200.52 45.6156 200.66 45.921C200.771 46.1432 200.993 46.6847 201.327 47.5456C201.661 48.4065 201.967 49.2535 202.245 50.0866C202.551 50.9197 202.704 51.4196 202.704 51.5862C202.704 52.1971 202.217 52.7248 201.244 53.1691C200.298 53.6134 199.158 53.9744 197.823 54.2521C196.488 54.5298 195.222 54.7242 194.026 54.8353C192.83 54.9742 191.982 55.0436 191.481 55.0436C185.613 55.0436 181.038 53.3079 177.756 49.8367C174.474 46.3654 172.833 41.7416 172.833 35.9654C172.833 32.1053 173.584 28.634 175.086 25.5515C176.616 22.469 178.813 20.0252 181.677 18.2201C184.542 16.415 187.977 15.5125 191.982 15.5125C193.54 15.5125 195.222 15.693 197.03 16.054C198.838 16.3873 200.423 16.9288 201.786 17.6786C202.064 17.8175 202.287 17.9841 202.453 18.1785C202.648 18.3451 202.745 18.595 202.745 18.9283C202.745 19.206 202.676 19.4837 202.537 19.7614L200.618 24.5934C200.312 25.371 199.825 25.7598 199.158 25.7598C198.88 25.7598 198.574 25.6903 198.24 25.5515C197.322 25.246 196.404 24.9961 195.486 24.8017C194.569 24.5795 193.623 24.4684 192.65 24.4684C189.284 24.4684 186.781 25.5237 185.14 27.6343C183.527 29.7448 182.72 32.3691 182.72 35.5072C182.72 38.5341 183.485 41.089 185.015 43.1718C186.572 45.2268 188.978 46.2543 192.232 46.2543C193.289 46.2543 194.304 46.1293 195.278 45.8794C196.251 45.6294 197.225 45.324 198.198 44.963C198.365 44.9074 198.532 44.8519 198.699 44.7963C198.866 44.7408 199.046 44.713 199.241 44.713Z" fill="#FF5858"/>
<path d="M209.038 50.0283C209.038 46.7302 211.716 44.0565 215.019 44.0565C218.322 44.0565 221 46.7302 221 50.0283C221 53.3264 218.322 56 215.019 56C211.716 56 209.038 53.3264 209.038 50.0283Z" fill="#FF5858"/>
</svg>
