<svg width="326" height="83" viewBox="0 0 326 83" fill="none" xmlns="http://www.w3.org/2000/svg">
<path d="M4.48012 2.07444H16.1974C18.1502 2.07444 19.299 3.11167 19.6436 5.18611C19.7585 5.6471 19.8733 6.56907 19.9882 7.95204C20.1031 9.335 20.2467 10.6315 20.419 11.8416C20.6488 13.0517 20.9359 13.6568 21.2806 13.6568C21.5678 13.6568 21.8262 13.5415 22.056 13.311C22.2857 13.0229 22.458 12.7924 22.5729 12.6195C26.3638 8.06728 30.7003 4.84037 35.5825 2.9388C40.5221 0.979599 45.8925 0 51.6937 0C56.4035 0 60.9698 0.864352 65.3925 2.59306C69.8726 4.32176 73.1753 7.49105 75.3005 12.1009C75.4153 12.2738 75.5302 12.5043 75.6451 12.7924C75.76 13.0805 75.961 13.2246 76.2482 13.2246C76.4779 13.2246 76.679 13.1381 76.8513 12.9653C77.0236 12.7348 77.1672 12.5619 77.282 12.4467C80.8432 8.52827 84.9787 5.50304 89.6885 3.37097C94.3984 1.18128 99.3955 0.0864352 104.68 0.0864352C111.687 0.0864352 117.718 2.04563 122.772 5.96403C127.884 9.8248 130.44 15.5295 130.44 23.0782C130.44 29.1287 130.498 35.2079 130.613 41.316C130.728 47.3665 130.842 53.4169 130.957 59.4674C131.072 62.3486 131.187 65.2586 131.302 68.1974C131.474 71.0785 131.56 73.9597 131.56 76.8409C131.56 79.2611 130.383 80.4712 128.028 80.4712H114.588C113.324 80.4712 112.434 80.183 111.917 79.6068C111.457 79.0306 111.17 78.1662 111.055 77.0137C110.826 74.5936 110.739 72.1446 110.797 69.6668C110.854 67.1313 110.826 64.6535 110.711 62.2333C110.653 57.0472 110.567 51.8611 110.452 46.675C110.395 41.4889 110.366 36.3028 110.366 31.1167C110.366 27.083 109.39 23.9425 107.437 21.6952C105.541 19.3903 102.526 18.2378 98.3903 18.2378C93.623 18.2378 89.5737 19.7072 86.2423 22.646C82.9109 25.5848 80.3549 29.2439 78.5744 33.6233C76.8513 37.945 75.9897 42.2092 75.9897 46.4157C75.9897 51.4866 76.0184 56.5574 76.0759 61.6283C76.1333 66.6992 76.162 71.7988 76.162 76.9273C76.162 79.2899 74.9846 80.4712 72.6296 80.4712H59.0169C56.662 80.4712 55.4845 79.2899 55.4845 76.9273C55.4845 69.2634 55.542 61.6283 55.6569 54.022C55.7717 46.4157 55.7717 38.7806 55.6569 31.1167C55.5994 27.2559 54.623 24.1442 52.7276 21.7817C50.8896 19.4191 47.9315 18.2378 43.8535 18.2378C38.9713 18.2378 34.8645 19.7072 31.5331 22.646C28.2018 25.5272 25.6745 29.1575 23.9514 33.5368C22.2283 37.9162 21.3093 42.2668 21.1944 46.5886C21.137 50.1036 21.0795 53.6186 21.0221 57.1337C20.9647 60.6487 20.8785 64.1925 20.7636 67.7652C20.7636 69.2634 20.7636 70.8192 20.7636 72.4327C20.8211 73.9885 20.7636 75.5155 20.5913 77.0137C20.4764 78.1662 20.1605 79.0306 19.6436 79.6068C19.1841 80.183 18.3225 80.4712 17.0589 80.4712H3.5324C1.17747 80.4712 0 79.2323 0 76.7544C0 73.758 0.0574374 70.7904 0.172312 67.8516C0.344625 64.8552 0.459499 61.8588 0.516937 58.8624C0.861561 46.2428 1.03387 33.6521 1.03387 21.0902C1.03387 18.7276 0.976436 16.1346 0.861561 13.311C0.746686 10.4875 0.775405 7.92322 0.947717 5.61829C1.12003 3.25573 2.2975 2.07444 4.48012 2.07444Z" fill="white"/>
<path d="M167.623 81.6442C162.289 81.6442 157.818 80.3683 154.207 77.8164C150.597 75.2645 147.869 71.8894 146.022 67.6911C144.217 63.4517 143.315 58.8624 143.315 53.9232V52.9354C143.397 47.7493 144.463 42.8718 146.515 38.3031C148.607 33.7344 151.622 30.0506 155.561 27.2518C159.5 24.4118 164.259 22.9918 169.838 22.9918C173.285 22.9918 176.485 23.6503 179.439 24.9674C182.434 26.2434 185.223 27.9927 187.808 30.2153C188.095 30.5034 188.341 30.6474 188.547 30.6474C189.039 30.6474 189.264 30.133 189.223 29.104C189.223 28.075 189.367 27.046 189.654 26.017C189.982 24.988 190.803 24.4735 192.116 24.4735H200.793C202.475 24.4735 203.316 25.3173 203.316 27.0048C203.316 28.7747 203.296 30.5445 203.255 32.3144C203.255 34.0843 203.255 35.8541 203.255 37.624C203.255 42.1516 203.275 46.6997 203.316 51.2684C203.398 55.8371 203.46 60.3853 203.501 64.9128C203.542 67.0531 203.583 69.214 203.624 71.3955C203.706 73.5358 203.747 75.6966 203.747 77.8781C203.747 79.6068 202.906 80.4712 201.224 80.4712H191.562C190.454 80.4712 189.736 80.1213 189.408 79.4216C189.08 78.6807 188.936 77.8164 188.977 76.8285C189.018 75.8407 189.018 74.9558 188.977 74.1737C188.977 74.0503 188.957 73.8445 188.916 73.5563C188.875 73.2682 188.752 73.1242 188.547 73.1242C188.382 73.1242 188.218 73.1859 188.054 73.3094C187.931 73.4329 187.808 73.5358 187.685 73.6181C184.813 76.0465 181.716 78.0016 178.392 79.4833C175.069 80.9239 171.479 81.6442 167.623 81.6442ZM173.9 68.4937C176.813 68.4937 179.5 67.8969 181.962 66.7033C184.464 65.4685 186.413 63.534 187.808 60.8998C187.89 60.7351 188.075 60.3235 188.362 59.665C188.69 58.9653 188.854 58.5331 188.854 58.3684C188.854 56.9279 188.834 55.4873 188.793 54.0467C188.793 52.6061 188.793 51.1861 188.793 49.7867C188.793 49.1281 188.813 48.4078 188.854 47.6258C188.895 46.8026 188.875 46.0823 188.793 45.4649C188.752 45.1768 188.588 44.7446 188.3 44.1684C188.054 43.5921 187.87 43.1805 187.747 42.9336C186.311 40.3405 184.28 38.406 181.654 37.1301C179.028 35.8541 176.28 35.2162 173.408 35.2162C170.372 35.2162 167.705 35.9776 165.407 37.5005C163.11 39.0234 161.305 41.0402 159.992 43.551C158.72 46.0206 158.084 48.7371 158.084 51.7006C158.084 54.6641 158.761 57.4218 160.115 59.9737C161.469 62.5256 163.336 64.5835 165.715 66.1476C168.136 67.7117 170.864 68.4937 173.9 68.4937Z" fill="white"/>
<path d="M226.455 24.4735C228.014 24.4735 228.855 25.235 228.978 26.7579L229.594 33.7962C229.594 33.8373 229.635 34.146 229.717 34.7222C229.799 35.2573 229.942 35.5249 230.148 35.5249C230.353 35.5249 230.558 35.2985 230.763 34.8457C231.009 34.393 231.153 34.1254 231.194 34.0431C232.876 30.8738 234.927 28.3837 237.348 26.5726C239.768 24.7616 242.825 23.8561 246.517 23.8561C247.379 23.8561 248.466 23.9384 249.779 24.1031C251.133 24.2265 251.81 24.9057 251.81 26.1405C251.81 26.7579 251.687 27.7251 251.441 29.0422C251.194 30.3593 250.907 31.697 250.579 33.0553C250.292 34.3724 250.066 35.3808 249.902 36.0805C249.738 36.7802 249.471 37.3359 249.102 37.7475C248.774 38.1179 248.199 38.3031 247.379 38.3031C246.969 38.3031 246.558 38.2826 246.148 38.2414C245.779 38.1591 245.369 38.1179 244.917 38.1179C241.676 38.1179 238.948 39.1469 236.732 41.2049C234.517 43.2217 232.855 45.7119 231.748 48.6754C230.64 51.6388 230.086 54.5612 230.086 57.4424V77.9398C230.086 79.6274 229.245 80.4712 227.563 80.4712H218.024C216.342 80.4712 215.501 79.6068 215.501 77.8781C215.501 71.4984 215.522 65.1392 215.563 58.8006C215.645 52.4209 215.686 46.0617 215.686 39.7231V27.0048C215.686 25.3173 216.527 24.4735 218.209 24.4735H226.455Z" fill="white"/>
<path d="M293.903 66.2711C294.478 66.2711 294.908 66.4563 295.195 66.8267C295.524 67.1972 295.79 67.6088 295.996 68.0615C296.16 68.3908 296.488 69.1934 296.98 70.4694C297.472 71.7453 297.924 73.0007 298.334 74.2355C298.785 75.4703 299.011 76.2111 299.011 76.4581C299.011 77.3636 298.293 78.1456 296.857 78.8042C295.462 79.4627 293.78 79.9978 291.811 80.4094C289.842 80.821 287.975 81.1091 286.211 81.2738C284.447 81.4796 283.195 81.5825 282.457 81.5825C273.8 81.5825 267.051 79.01 262.21 73.865C257.369 68.7201 254.948 61.867 254.948 53.3058C254.948 47.5846 256.056 42.4397 258.271 37.871C260.528 33.3022 263.769 29.6802 267.995 27.0048C272.221 24.3294 277.287 22.9918 283.195 22.9918C285.493 22.9918 287.975 23.2593 290.642 23.7944C293.308 24.2883 295.647 25.0909 297.657 26.2022C298.067 26.408 298.396 26.655 298.642 26.9431C298.929 27.19 299.073 27.5605 299.073 28.0544C299.073 28.466 298.97 28.8776 298.765 29.2892L295.934 36.451C295.483 37.6034 294.765 38.1797 293.78 38.1797C293.37 38.1797 292.919 38.0768 292.426 37.871C291.072 37.4182 289.718 37.0478 288.365 36.7596C287.011 36.4304 285.616 36.2657 284.18 36.2657C279.216 36.2657 275.523 37.8298 273.103 40.9579C270.723 44.0861 269.533 47.9756 269.533 52.6267C269.533 57.1131 270.662 60.8998 272.918 63.9867C275.215 67.0325 278.764 68.5555 283.564 68.5555C285.123 68.5555 286.621 68.3702 288.057 67.9998C289.493 67.6294 290.929 67.1766 292.365 66.6415C292.611 66.5592 292.857 66.4769 293.103 66.3946C293.349 66.3122 293.616 66.2711 293.903 66.2711Z" fill="white"/>
<path d="M308.355 74.149C308.355 69.2608 312.305 65.2981 317.178 65.2981C322.05 65.2981 326 69.2608 326 74.149C326 79.0373 322.05 83 317.178 83C312.305 83 308.355 79.0373 308.355 74.149Z" fill="white"/>
</svg>
